<?xml version="1.0" encoding="utf-8"?>
<!-- Generator: Adobe Illustrator 26.1.0, SVG Export Plug-In . SVG Version: 6.00 Build 0)  -->
<svg version="1.1" id="Layer_2_1_" xmlns="http://www.w3.org/2000/svg" xmlns:xlink="http://www.w3.org/1999/xlink" x="0px" y="0px"
	 viewBox="0 0 400 400" style="enable-background:new 0 0 400 400;" xml:space="preserve">
<style type="text/css">
	.st0{fill:#FDB927;}
	.st1{fill:#552583;}
	.st2{fill:#FFFFFF;}
</style>
<g>
	<path class="st0" d="M200.8,55.1c-80.3-0.4-145.3,64.3-145.7,144.6c-0.4,80.3,65.4,145.7,145.7,146.1
		c80.3,0.4,144.6-64.3,145-144.6c0.4-80.3-64.3-145.7-144.6-146.1"/>
	<path class="st1" d="M200.8,61C123.8,60.6,61.4,122.7,61,199.8c-0.4,77.1,62.8,139.8,139.9,140.2c77,0.4,138.8-61.7,139.2-138.8
		c0.4-77.1-61.7-139.8-138.8-140.2"/>
	<path class="st2" d="M87.1,190.8l-0.1,2.5c3.1,0.2,5.6,2.8,5.4,6c-0.2,2.3-1.1,2.7-3,2.6L74.5,201c-1.5-0.1-2.2-0.5-2.1-1.9
		c0-0.8,0.1-1,0.1-1h0l-1.7-0.1l-0.2,2.8l-0.3,5.5l-0.1,2.8l1.7,0.1l0,0c0,0,0-0.2,0-1c0.1-1.3,0.9-1.7,2.3-1.6l15.5,0.8
		c1.5,0.1,2.2,0.5,2.1,1.9c0,0.8-0.1,1-0.1,1h0l1.9,0.1l0.2-2.8l0.3-5.5l0.5-8.4l0.1-2.5l-1.9-0.1L87.1,190.8z M280.1,127.5
		l-1.5,1.2l1.7,2.2l3.4,4.3l5.2,6.6l1.6,2l1.5-1.2l4.5-3.6l-1.6-2c-2.5,2-6,1.6-8-0.9c-1.4-1.8-0.9-2.8,0.6-3.9l11.7-9.3
		c1.2-0.9,2-1.1,2.8,0c0.5,0.6,0.6,0.8,0.6,0.8l0,0l1.3-1.1l-1.7-2.2l-3.4-4.3l-1.7-2.2l-1.3,1.1l0,0c0,0,0.2,0.1,0.6,0.8
		c0.8,1.1,0.5,1.9-0.7,2.8l-12.2,9.7c-1.2,0.9-2,1.1-2.8,0C280.2,127.7,280.1,127.5,280.1,127.5L280.1,127.5z M100,158.1
		c-1.4-2.8-3.7-4.8-6.7-6.1c-3.2-1.3-6.3-1.5-9.3-0.5c-3,1-5.2,3.1-6.5,6.5c-0.8,1.9-1,3.8-0.8,5.8c0.2,2,1.1,3.8,2.6,5.6
		c1.5,1.7,3.2,3,5.2,3.8c1.8,0.7,3.8,1.1,5.9,1.1c2.1,0,4.1-0.6,5.9-1.9c1.8-1.3,3.1-3,4-5.2C101.5,163.9,101.5,160.9,100,158.1z
		 M98,166.4c-0.6,1.3-1.7,2-3.5,2.1c-1.8,0.1-4.3-0.6-7.7-2c-3.1-1.3-5.2-2.5-6.4-3.8c-1.1-1.3-1.4-2.6-0.9-3.9
		c0.6-1.5,1.8-2.2,3.6-2.2c1.8,0,4.3,0.6,7.4,1.9c3.4,1.4,5.6,2.7,6.7,4C98.3,163.7,98.6,165,98,166.4z M200.1,74.5
		c0.1-0.5,0.4-0.9,0.8-1.3c0.4-0.4,0.9-0.6,1.4-0.6l-0.1-1.9l-7.2,0.5l0.1,1.9c1.8-0.1,2.8,1.1,3,3.7l0.7,10.8l-12.1-15.9l-6.7,0.5
		l0.1,1.9c1.9-0.1,2.9,1,3.1,3.4l0.8,12c0.1,1,0.1,1.8,0,2.3c-0.1,0.5-0.4,0.9-0.8,1.3c-0.4,0.4-1,0.6-1.6,0.7l0.1,1.9l7.5-0.5
		l-0.1-1.9c-0.8,0.1-1.5-0.1-2.1-0.6c-0.6-0.5-0.9-1.6-1-3.3l-0.7-10.8l10.3,14.2c1,1.4,2.8,2.2,4.5,2.1l1.2-0.1L200,76.7
		C200,75.8,200,75,200.1,74.5z M99.9,133.8c1.1,0.2,2.2,0.2,3.3-0.1c1.1-0.3,3-1,5.8-2.1c1.4-0.6,2.5-0.8,3.2-0.7
		c0.7,0.1,1.2,0.3,1.6,0.7c0.6,0.5,0.9,1.2,1,2.1c0,0.8-0.3,1.6-0.9,2.4c-0.9,1-2.1,1.6-3.7,1.8c-1.5,0.2-3.4-0.3-5.6-1.5l-1.4,1.6
		l6.4,5.7l1.4-1.6c-0.1-0.1-0.2-0.3-0.4-0.4c-0.5-0.6-0.1-1.5,0.6-1.7c0.6-0.1,1.2-0.3,1.7-0.6c1.2-0.5,2.1-1.3,3-2.2
		c1.4-1.6,2.1-3.4,2.1-5.5c0-2.1-0.8-3.8-2.3-5.2c-0.8-0.7-1.8-1.3-2.8-1.6c-1-0.3-2.1-0.3-3.1-0.2c-1,0.2-2.4,0.7-4.2,1.4
		c-1.9,0.8-3.2,1.4-3.9,1.6c-0.6,0.2-1.3,0.3-1.9,0.2c-0.6-0.1-1.1-0.3-1.6-0.7c-0.6-0.5-0.9-1.1-0.9-1.9c0-0.7,0.3-1.5,0.9-2.1
		c0.8-0.9,1.9-1.4,3.3-1.5c1.4-0.1,2.8,0.3,4.2,1.1l1.3-1.5l-5.2-4.6l-1.3,1.5c0,0,0,0,0,0.1c0.5,0.6,0.1,1.5-0.6,1.7
		c-1.3,0.4-2.5,1.1-3.5,2.2c-1.3,1.4-1.9,3.1-1.9,5.1c0,2,0.8,3.6,2.3,5C97.8,133.1,98.8,133.6,99.9,133.8z M330,201.5
		c-0.8-0.1-1.1-1-0.7-1.6c0.7-1.2,1-2.6,0.9-4.1c-0.1-1.9-0.8-3.6-2.2-5c-1.4-1.4-3.1-2-5.1-1.9c-1.3,0.1-2.4,0.4-3.3,1
		c-0.9,0.6-1.7,1.4-2.3,2.4c-0.6,1-1.5,2.8-2.6,5.6c-0.6,1.4-1.2,2.3-1.8,2.7c-0.6,0.4-1.1,0.6-1.7,0.6c-0.8,0-1.5-0.2-2.1-0.8
		c-0.6-0.6-1-1.3-1-2.3c-0.1-1.3,0.4-2.6,1.4-3.8c1-1.2,2.7-2.2,5-2.9l-0.1-2.1l-8.5,0.4l0.1,2.1c0.2,0,0.4,0,0.6,0.1
		c0.8,0.1,1.2,1,0.8,1.7c-0.3,0.5-0.6,1-0.8,1.6c-0.5,1.2-0.6,2.4-0.6,3.6c0.1,2.1,0.9,3.9,2.4,5.4c1.5,1.5,3.2,2.2,5.3,2
		c1.1-0.1,2.2-0.4,3.1-0.9c0.9-0.5,1.7-1.2,2.3-2.1c0.6-0.9,1.3-2.2,2-3.9c0.8-2,1.3-3.2,1.6-3.9c0.3-0.6,0.7-1.1,1.2-1.5
		c0.5-0.4,1-0.6,1.6-0.6c0.8,0,1.4,0.2,2,0.7c0.5,0.5,0.8,1.2,0.9,2.1c0.1,1.2-0.4,2.3-1.3,3.4c-0.9,1-2.2,1.8-3.7,2.2l0.1,1.9
		l7-0.4L330,201.5C330.1,201.5,330.1,201.5,330,201.5z M126.6,276.4c-0.6,0.4-1.5,0-1.7-0.7c-0.3-1.4-1-2.6-2.1-3.6
		c-1.4-1.3-3.1-2-5-2.1c-2-0.1-3.7,0.6-5.1,2.1c-0.9,0.9-1.5,1.9-1.7,3c-0.3,1.1-0.3,2.2,0,3.3c0.2,1.1,0.9,3.1,1.9,5.9
		c0.5,1.5,0.7,2.5,0.6,3.2c-0.1,0.7-0.4,1.2-0.8,1.6c-0.6,0.6-1.3,0.9-2.1,0.9c-0.8,0-1.6-0.3-2.3-1c-1-0.9-1.5-2.2-1.6-3.7
		c-0.1-1.6,0.4-3.4,1.7-5.5l-1.5-1.5l-5.9,6.1l1.5,1.5c0.1-0.1,0.3-0.2,0.5-0.3c0.6-0.5,1.5-0.1,1.7,0.7c0.1,0.6,0.3,1.2,0.5,1.8
		c0.5,1.2,1.2,2.2,2,3c1.5,1.5,3.4,2.3,5.4,2.3c2.1,0.1,3.8-0.6,5.3-2.2c0.8-0.8,1.3-1.7,1.7-2.8c0.3-1,0.4-2.1,0.3-3.1
		c-0.2-1-0.6-2.4-1.2-4.2c-0.8-2-1.2-3.3-1.4-3.9c-0.2-0.7-0.2-1.3-0.1-1.9c0.1-0.6,0.4-1.1,0.8-1.5c0.5-0.6,1.2-0.8,1.9-0.8
		c0.7,0,1.4,0.3,2.1,1c0.9,0.8,1.3,2,1.3,3.4c0,1.4-0.4,2.8-1.2,4.1l1.4,1.4l4.8-5L126.6,276.4C126.6,276.4,126.6,276.4,126.6,276.4
		z M293.4,277.7c-1-0.4-2-0.6-3.1-0.5c-1,0.1-2.5,0.3-4.3,0.9c-2,0.6-3.4,0.9-4,1.1c-0.7,0.1-1.3,0.1-1.9,0
		c-0.6-0.2-1.1-0.5-1.5-0.9c-0.5-0.6-0.7-1.2-0.6-2c0.1-0.7,0.5-1.4,1.1-2c0.9-0.8,2.1-1.1,3.5-1c1.4,0.1,2.7,0.6,4,1.6l1.5-1.3
		l-4.6-5.3l-1.5,1.3c0,0,0,0,0,0.1c0.4,0.7-0.1,1.5-0.8,1.6c-1.4,0.2-2.6,0.8-3.8,1.8c-1.4,1.3-2.3,2.9-2.5,4.8
		c-0.2,2,0.3,3.7,1.7,5.2c0.8,1,1.8,1.6,2.9,2c1.1,0.4,2.2,0.5,3.3,0.3c1.1-0.1,3.1-0.6,6-1.3c1.5-0.4,2.6-0.5,3.2-0.3
		c0.7,0.2,1.2,0.5,1.5,0.9c0.5,0.6,0.8,1.3,0.7,2.2c-0.1,0.8-0.5,1.6-1.2,2.2c-1,0.9-2.3,1.3-3.9,1.3c-1.6,0-3.3-0.8-5.4-2.2
		l-1.6,1.4l5.6,6.4l1.6-1.4c-0.1-0.1-0.2-0.3-0.3-0.5c-0.4-0.7,0-1.5,0.8-1.6c0.6,0,1.2-0.2,1.8-0.4c1.2-0.4,2.3-1,3.2-1.8
		c1.6-1.4,2.5-3.1,2.8-5.2c0.3-2.1-0.3-3.9-1.7-5.5C295.2,278.7,294.4,278.1,293.4,277.7z M240.9,90.4l-8.2-2.2l-0.5,1.8
		c1.6,0.6,2.3,1.5,1.9,2.8c0,0-1.1,4.9-5.4,3.7c-1.3-0.4-2.3-1-2.9-1.9c-0.6-0.9-0.9-2.1-0.9-3.4c0.1-1.3,0.4-3.2,1.1-5.7
		c0.9-3.5,2.1-5.8,3.5-7c1.4-1.2,3-1.5,4.9-1c3.2,0.9,4.8,3.4,4.8,7.6l1.7,0.5l2-8l-1.7-0.5c0,0,0,0,0,0c-0.4,1.1-1.7,1.4-2.5,0.6
		c-1.3-1.4-2.9-2.3-4.8-2.9c-3.2-0.9-6.1-0.4-8.9,1.4c-2.8,1.8-4.6,4.4-5.5,7.7c-0.8,3.1-0.6,6.1,0.8,8.9c1.4,2.9,3.7,4.7,7,5.6
		c7.1,1.9,11.9-1.8,13-5.6L240.9,90.4z M275.5,98c0.3,0.4,0.4,1,0.4,1.7c0,0.8-0.2,1.7-0.5,2.8l1.6,1.1l3.2-5.2l-16.1-11.2l-1.1,1.6
		l0.4,0.2c0.9,0.7,1.4,1.3,1.5,1.8c0.1,0.6-0.2,1.3-0.8,2.2l-8,11.5c-0.6,0.9-1.2,1.4-1.7,1.5c-0.5,0.2-1.3-0.1-2.3-0.8l-0.4-0.2
		l-1.1,1.6l17.3,12l4.6-6.3l-1.6-1.1c-0.8,0.7-1.8,1.4-2.8,1.8c-1,0.5-1.9,0.6-2.8,0.5c-0.8-0.1-1.9-0.6-3.1-1.5
		c-0.9-0.7-1.1-0.9-1.4-1.4c-0.3-0.5-0.4-0.9-0.4-1.3c0.1-0.4,0.5-1,1.1-1.9l3.3-4.8l1.4,1c1,0.7,1.4,1.3,1.3,1.9
		c-0.1,0.6-0.3,1.2-0.7,1.7c0,0.1-0.1,0.1-0.2,0.3l1.6,1.1l4.6-6.6l-1.6-1.1c-0.7,0.9-1.3,1.5-1.8,1.6c-0.5,0.1-1.2-0.1-2-0.7
		l-1.4-0.9l4.7-6.7l3.2,2.2C274.7,97.1,275.3,97.6,275.5,98z M310.2,169.4c-1.1,0.1-2.2,0.1-3.3-0.1c-1.1-0.2-2-0.6-2.6-1.1
		c-0.6-0.5-1.2-1.5-1.7-3c-0.4-1.1-0.4-1.4-0.4-2c0-0.6,0.2-1,0.4-1.3c0.3-0.2,0.9-0.6,2-0.9l5.5-2l0.6,1.6c0.4,1.1,0.4,1.9,0,2.3
		c-0.4,0.5-0.9,0.8-1.6,1c-0.1,0-0.2,0.1-0.3,0.1l0.7,1.8l7.5-2.8l-0.7-1.8c-1.1,0.4-1.9,0.5-2.4,0.3c-0.5-0.2-0.9-0.8-1.3-1.7
		l-0.6-1.5l7.6-2.9l1.3,3.6c0.4,1,0.5,1.7,0.5,2.2c0,0.5-0.2,1-0.7,1.6c-0.4,0.6-1.1,1.3-2,2l0.7,1.8l5.6-2.5l-6.8-18.4l-1.8,0.7
		l0.2,0.4c0.4,1.1,0.5,1.9,0.2,2.4c-0.3,0.5-0.9,0.9-1.9,1.3l-13.1,4.9c-1,0.4-1.8,0.5-2.3,0.3c-0.5-0.2-1-0.8-1.4-1.9l-0.2-0.4
		l-1.8,0.7l7.4,19.7l7.3-2.6L310.2,169.4z M152.9,295.3c-1.1-0.7-2.7-1.7-4.8-2.8l-8-4.1l-0.9,1.7l0.5,0.3c1,0.6,1.6,1.1,1.7,1.6
		c0.1,0.6-0.1,1.3-0.6,2.2l-6.7,12.3c-0.5,0.9-1,1.5-1.5,1.7c-0.5,0.2-1.3,0-2.3-0.5l-0.4-0.2l-0.9,1.7l10.8,5.9l0.9-1.7l-0.5-0.3
		c-1-0.6-1.6-1.1-1.7-1.7c-0.1-0.5,0.1-1.3,0.6-2.2l2.7-4.9c0,0,9.9,7.9,14.1,0.1c0.5-1,0.8-2.1,0.8-3.2c0-1.1-0.4-2.2-1.1-3.2
		C154.9,296.9,154,296,152.9,295.3z M149.7,301.7c-2.9,5.2-7.2,1.1-7.2,1.1l4.7-8.6c1.4,0.7,2.3,1.4,2.8,1.9
		c0.5,0.5,0.8,1.2,0.8,2.1C150.8,299.2,150.3,300.7,149.7,301.7z M227.3,324.5c-0.6-0.4-1.3-1.2-2.3-3.4c-1.9-4.2-5.6-3.7-7.1-3.9
		c3.7-0.4,7.1-4.1,6.8-6.9c-0.1-1.1-0.5-2-1.1-2.9c-0.6-0.9-1.4-1.5-2.4-1.9c-1-0.4-2-0.7-3-0.7c-1,0-2.5,0-4.6,0.3l-2.1,0.2l-9.4,1
		l0.2,1.9l0.5,0c1.1-0.1,1.9,0,2.3,0.4c0.4,0.4,0.7,1.1,0.8,2.2l1.4,13.9c0.1,1.1,0,1.8-0.3,2.3c-0.3,0.5-1.1,0.8-2.2,0.9l-0.5,0
		l0.2,1.9l12.7-1.3l-0.2-1.9l-0.4,0c-1.1,0.1-1.9,0-2.3-0.4c-0.4-0.4-0.7-1.1-0.8-2.2l-0.6-6c1.3-0.1,4.6,0.9,6.1,4.2
		c1.5,3.5,2.7,6.1,7.1,5.6c2.8-0.3,3.5-1.6,3.5-1.6l-0.1-1.3C228.6,325.1,228,324.9,227.3,324.5z M216.5,315.6
		c-0.7,0.3-2,0.6-3.9,0.8l-0.9-8.9c0.4-0.1,0.7-0.1,1-0.1c1.9-0.2,3.3,0,4.1,0.5c0.8,0.6,1.4,1.7,1.5,3.3c0.1,1.2,0,2.1-0.3,2.8
		C217.7,314.7,217.2,315.3,216.5,315.6z M258,313.6c-0.5-0.2-1-0.8-1.5-1.8l-3.4-6.6l-3-5.9c-0.5-0.9-0.7-1.7-0.6-2.2
		c0.1-0.5,0.7-1.1,1.7-1.6l0.3-0.2l-0.9-1.7l-11.2,5.8l0.9,1.7l0.3-0.2c1-0.5,1.8-0.7,2.3-0.5c0.5,0.2,1,0.8,1.5,1.8l6.4,12.4
		c0.5,0.9,0.7,1.7,0.6,2.2c-0.1,0.6-0.7,1.1-1.8,1.6l-0.3,0.2l0.9,1.7l11-5.7l-0.9-1.7C259.4,313.6,258.6,313.8,258,313.6z
		 M270.2,307.4c-0.8-0.1-2.1-0.6-3.7-1.4l-8.5-4.9c0,0,1.7-8.1,2.9-9.8c0.7-0.9,1.5-1.5,2.3-2l-0.8-1.6l-8.6,4.5l0.8,1.6
		c1.3-0.7,2.3-1.1,2.8-0.1c0.6,1.2-3.1,12-3.1,12l8.5,4.9c2,1.2,4.6,1.2,6.7,0.1l4.5-2.3l-0.8-1.6
		C271.9,307.3,271,307.5,270.2,307.4z M183.1,322.8l-3.1-18.9l-1.5-0.3c-0.8-0.2-1.6,0.2-2,0.9l-9,15.4c-1.3,2.3-2.7,3.3-4,3.1
		l-0.4,1.9l6.8,1.3l0.4-1.9c-0.8-0.1-1.3-0.4-1.6-0.6c-0.3-0.3-0.4-0.7-0.3-1.3c0.1-0.3,0.3-0.9,0.7-1.6l0.6-1.1l7.6,1.4l0.3,1.8
		l0.1,0.6c0.1,0.5,0.1,0.8,0.1,1.1c-0.1,0.5-0.4,1-1.7,0.8l-0.4,1.9l8.9,1.7l0.4-1.9C183.5,326.7,183.4,324.6,183.1,322.8z
		 M170.8,317.8l4.9-8.4l1.3,9.6L170.8,317.8z M167.1,97.6c-1.4,0.6-2.7-1.1-3.9-2.5l-12.9-14.2l-1.5,0.6c-0.7,0.3-1.2,1-1.2,1.8
		l0.8,17.8c0.1,2.6-0.4,4.2-1.7,4.7l0.7,1.8l6.4-2.6l-0.7-1.8c-0.7,0.3-1.3,0.4-1.7,0.3c-0.4-0.1-0.7-0.4-0.9-0.9
		c-0.1-0.3-0.2-0.9-0.2-1.8l-0.1-1.2l7.2-2.9l1.2,1.3l0.4,0.4c0.3,0.3,0.6,0.6,0.7,0.9c0.2,0.4,0.2,1.1-1,1.6l0.7,1.8l8.4-3.4
		L167.1,97.6z M150.2,97.6l-0.4-9.8l6.3,7.4L150.2,97.6z"/>
	<g>
		<path class="st0" d="M199.2,170.3v-6.6c-3.1,0.2-6,1.2-8.6,2.6c1.5,1.1,2.9,2.7,3.7,4.8C195.8,170.7,197.4,170.4,199.2,170.3z"/>
		<path class="st0" d="M180.7,189.7c0.6,2.1,1.4,4.1,2.6,5.9c0.3-4.1,2.6-7.9,4.7-11.3c2-3.2,3.8-6.2,3.8-8.9v0
			C186.1,178,182.1,183.1,180.7,189.7z"/>
		<path class="st0" d="M167.1,198.6l-12.4,0.3l0.3-7.5l-6.5,7.6l-5.9,0.2l0.3-7.7l-6.7,7.9l-17.2,0.5c0,0.1,0,0.1,0,0.2
			c-0.1,12.9,2.9,25.1,8.1,35.9C134.6,214.5,154.4,203.5,167.1,198.6z"/>
		<path class="st0" d="M187.7,168.3c-4.1,3.3-6.9,8.2-7.5,13.8c2.5-4.4,6.3-7.9,11-9.9C190.4,170.2,189,169,187.7,168.3z"/>
		<path class="st0" d="M209.8,175.4L209.8,175.4c0,2.7,1.8,5.7,3.8,8.9c2,3.3,4.4,7.2,4.7,11.3c1.1-1.8,2-3.8,2.6-5.9
			C219.5,183.1,215.5,178,209.8,175.4z"/>
		<path class="st0" d="M213.9,168.3c-1.3,0.7-2.7,1.9-3.5,3.9c4.7,2,8.5,5.5,11,9.9C220.8,176.5,218,171.6,213.9,168.3z"/>
		<path class="st0" d="M210.8,186c-2.2-3.6-4.3-7-4.3-10.6c0-0.4,0-0.8,0.1-1.2c-1.4-0.4-2.8-0.6-4.2-0.7v31.6
			c4.4-0.3,8.5-2.1,11.7-4.8C216.6,195.5,213.9,191,210.8,186z"/>
		<path class="st0" d="M252.1,219.8l-2.7,7.3l-5.4-2.4l-3-9.5l-2.6,7l-25-11.2l-5.2,8.1v62.5c28.3-2.6,52.5-19.8,64.9-44l-17.8-7.9
			L252.1,219.8z M240.9,265l-10.7,3.8v-3.3l0.3-0.1c1.2-0.4,2.3-1.3,2.1-2.2c-0.1-0.4-0.6-2-0.8-2.7l-0.8-3.1l-8.6,3.1l-0.4,2
			c-0.3,1.5-0.8,3.8-0.8,4.4c0,0.4-0.1,1,0.2,1.3c0.3,0.3,1.1,0.2,2.1-0.1l0.7-0.2v3.3l-9.4,3.4v-3.3l0.3-0.1
			c1.9-0.7,2.6-3.8,3.5-8.1l7.4-33.3c0.4-1.6,1.3-2.9,2.5-3.3l1.1-0.4l8.4,30.7c0.5,1.9,1.3,4.9,2.1,5.3c0.1,0.1,0.2,0.1,0.3,0
			l0.7-0.2V265z"/>
		<polygon class="st0" points="223.3,255.6 229.8,253.2 226.7,240.6 		"/>
		<path class="st0" d="M281.9,199.8l-16.7-0.4l-6.7-7.9l0.3,7.7l-5.9-0.2l-6.5-7.6l0.3,7.5l-12.4-0.3c12.6,4.9,32.1,15.7,39.7,36.9
			c5-10.5,7.8-22.2,7.9-34.5C282,200.6,282,200.2,281.9,199.8z"/>
		<path class="st0" d="M201,103.9c-53.4-0.3-96.9,42.8-97.1,96.1c-0.3,53.4,42.8,96.9,96.1,97.1c53.4,0.3,96.9-42.8,97.1-96.1
			C297.4,147.6,254.4,104.1,201,103.9z M200,291.8c-50.4-0.3-91.1-41.4-90.9-91.8c0.3-50.4,41.4-91.1,91.8-90.9
			c50.4,0.3,91.1,41.4,90.9,91.8C291.6,251.4,250.5,292.1,200,291.8z"/>
		<path class="st0" d="M163.1,222.2l-2.6-7l-3,9.5l-5.4,2.4l-2.7-7.3l-3.1,9.8l-18.1,8.1c12.5,24.3,36.9,41.5,65.5,43.9v-62.4
			L188,211L163.1,222.2z M185.6,275.1l-23-8.8V263l0.7,0.4c0,0,0.3,0.1,1.1,0.5c0.5,0.2,0.8,0.2,1,0.1c0.2-0.1,0.3-0.4,0.3-1.5
			v-25.8c0-1-0.2-1.3-0.3-1.4c-0.2-0.1-0.5,0-1,0.2c-0.9,0.4-1.1,0.5-1.1,0.5l-0.7,0.5l0-3.2l13.6-6.1v3.1l-0.4,0.1
			c0,0-0.2,0.1-1.1,0.4c-1.3,0.6-1.7,1.4-1.7,3v30.3c0,2.1,1,3.4,3.3,4.3c1.5,0.6,2.6,0.6,3.5,0c1.7-1.2,1.9-4.5,1.9-7v-0.7l3.9,1.5
			V275.1z"/>
		<path class="st0" d="M195,175.4c0,3.6-2.1,7-4.3,10.6c-3.1,5-5.8,9.5-3.3,14.3c3.2,2.7,7.3,4.4,11.7,4.8v-31.6
			c-1.5,0.1-2.9,0.3-4.2,0.7C194.9,174.6,195,175,195,175.4z"/>
		<path class="st0" d="M211,166.3c-2.6-1.5-5.5-2.4-8.6-2.6v6.6c1.7,0.1,3.4,0.4,4.9,0.8C208.1,169,209.5,167.4,211,166.3z"/>
	</g>
	<g>
		<path class="st2" d="M200.7,155.8c5.2-8.1,17-22.8,36.2-28.2c-10.8-5.4-23-8.5-36-8.6c-13.2-0.1-25.6,3-36.6,8.5
			C183.6,132.8,195.5,147.6,200.7,155.8z"/>
		<path class="st2" d="M172.4,152l-3.7-4.6l6.3-4.5l-10.3-0.5l-8.4-10.4c-10.3,6.7-19,15.6-25.4,26.2c20.1-7.8,39.3-1.5,49.3,3.2
			l-3.8-4.7l6.1-4.3L172.4,152z"/>
		<path class="st2" d="M144,169.3l-16-5.9c-4.9,9.5-7.9,20.1-8.7,31.3c17.5-17,41-16.7,51-15.7l-8.9-3.3l3.1-6.8l-8.8,4.7l-5.6-2.1
			l3.2-7.1L144,169.3z"/>
		<path class="st2" d="M273.1,163.5l-15.6,5.8l-9.1-4.8l3.2,7.1l-5.6,2.1l-8.8-4.7l3.1,6.8l-8.9,3.3c9.9-1,33-1.2,50.5,15.2
			C280.9,183.3,277.9,172.9,273.1,163.5z"/>
		<path class="st2" d="M245.1,132.3l-8.3,10.2l-10.3,0.5l6.3,4.5l-3.7,4.6l-10,0.5l6.1,4.3l-3.8,4.7c9.9-4.7,28.9-10.9,48.7-3.4
			C263.8,147.8,255.2,139,245.1,132.3z"/>
	</g>
</g>
</svg>
