<?xml version="1.0" encoding="utf-8"?>
<!-- Generator: Adobe Illustrator 26.1.0, SVG Export Plug-In . SVG Version: 6.00 Build 0)  -->
<svg version="1.1" id="Layer_2_1_" xmlns="http://www.w3.org/2000/svg" xmlns:xlink="http://www.w3.org/1999/xlink" x="0px" y="0px"
	 viewBox="0 0 400 400" style="enable-background:new 0 0 400 400;" xml:space="preserve">
<style type="text/css">
	.st0{fill:#A0A2A3;}
	.st1{fill:#0C233F;}
	.st2{fill:#FFFFFF;}
	.st3{fill:#79BC43;}
	.st4{fill:#266092;}
</style>
<g>
	<g>
		<g>
			<path class="st0" d="M338.5,157.3l-1.5-4.2c-1-2.7-2-5.4-3.1-8.1c6.8-9.9,16.8-23.8,30.9-45.8c0,0-6.2,5.8-22,14.1
				c1-3.1,1.8-6.5,2.3-10.2c0,0-8.3,8.7-23.1,19.3C295.8,81.6,250.3,56,200.5,56c-16.1,0-32.1,2.7-47.4,8
				C77.8,90.1,37.9,172.6,64,247.9C84.2,306,139,345,200.5,345c16.1,0,32.1-2.7,47.4-8C321.7,311.4,361.6,231.5,338.5,157.3
				L338.5,157.3z"/>
			<path class="st1" d="M333.6,158.9l-1.4-4.1c-1.2-3.6-2.6-7.1-4.1-10.5c7.9-13.1,20.7-28,20.7-28c-3.8,3.1-9.2,5.8-15.3,8.3
				c1.7-3,3.3-6.2,4.8-9.7c0,0-6.3,6.1-17.8,14.4c0,0-0.1,0-0.1,0C295.6,87.6,250.3,61,200.5,61h0c-15.5,0-30.9,2.6-45.7,7.7
				C82.2,94,43.6,173.6,68.8,246.2c19.5,56.1,72.4,93.7,131.7,93.7c15.5,0,30.9-2.6,45.7-7.7C317.5,307.5,355.9,230.4,333.6,158.9
				L333.6,158.9z M286.7,142.2c-0.1,0.1-0.2,0.1-0.3,0.1c-1.2,0.7-2.5,1.4-3.8,2.1c-7.3-10.8-16.6-19.9-27.3-27c0-2.1,0-3.9,0-5.5
				C267.7,119.7,278.4,130,286.7,142.2 M102.2,234.6c-18.8-54.2,10-113.6,64.2-132.5c11.1-3.8,22.5-5.8,34.1-5.8
				c19.3,0,37.7,5.4,53.5,14.9c-0.6,1.5-1.2,2.9-1.9,4.3c-15.3-9.3-33.1-14.6-51.8-14.6c-11.1,0-22.1,1.9-32.6,5.5
				c-51.8,18-79.4,74.8-61.4,126.7c11.1,32.1,37.6,55.7,69.5,63.8c1.9,2.5,4.2,4.5,6.8,6.1C145.9,296.6,114.7,270.8,102.2,234.6"/>
		</g>
		<g>
			<path class="st2" d="M100.8,287.1c-0.2,0.1-0.2,0-0.2-0.2l2.6-12.9l-13-1c-0.2,0-0.3-0.1-0.1-0.2l14.1-11.9l2.9,3.8l-6,5l7,0.5
				c0.1,0,0.2,0.1,0.1,0.2l-1.4,7l6.5-4.3l2.9,3.8L100.8,287.1z"/>
			
				<rect x="80.5" y="249.5" transform="matrix(0.9096 -0.4155 0.4155 0.9096 -96.5827 60.0037)" class="st2" width="18.2" height="4.9"/>
			<path class="st2" d="M82.5,232.1l8.9-2l1,4.5l-18,4.1c-0.2,0-0.3,0-0.1-0.4l6.6-13.3l-8.9,2l-1-4.5l18-4.1c0.2,0,0.3,0,0.1,0.4
				L82.5,232.1z"/>
			<path class="st2" d="M78.6,202l9.1,0.2l-0.1,4.6l-18.5-0.4c-0.2,0-0.3-0.1,0-0.4l9.7-11.2l-9.1-0.2l0.1-4.6l18.5,0.4
				c0.2,0,0.3,0.1,0,0.4L78.6,202z"/>
			<polygon class="st2" points="72.2,174 75.4,161.6 79.4,162.7 77.4,170.3 80.3,171.1 82,164.7 85.7,165.7 84.1,172.1 87.1,172.9 
				89.2,164.8 93.2,165.9 89.8,178.6 			"/>
			<path class="st2" d="M93.8,155.3l-0.8-4.4c1.4-0.3,2.7-0.9,3.5-2.5c0.7-1.3,0.7-2.3-0.2-2.7c-0.7-0.4-1.3,0-2.2,0.9l-1.6,1.6
				c-2,2-4.3,2.9-7,1.6c-3.2-1.6-3.5-5.1-2-8c1.5-2.9,3.4-4.1,5-4.5l1.3,3.8c-1,0.3-2,0.9-2.6,2.2c-0.5,1-0.3,1.8,0.3,2.1
				c0.6,0.3,1.1,0.1,1.8-0.5l1.8-1.8c2.7-2.7,4.8-3,7.1-1.9c3,1.5,4.2,4.5,2,8.8C98.4,153.7,95.7,154.9,93.8,155.3"/>
			<path class="st2" d="M101.3,129.6c-4.2-3.6-4.2-9.5-0.7-13.5c3.4-4,9.3-5,13.5-1.4c4.2,3.6,4.2,9.5,0.8,13.5
				C111.4,132.2,105.5,133.1,101.3,129.6 M110.8,118.5c-2.2-1.9-5-2-7,0.3c-2,2.3-1.4,5.1,0.8,7c2.2,1.9,5,2,7-0.3
				C113.6,123.1,113,120.3,110.8,118.5"/>
			<polygon class="st2" points="123.5,100.2 119.6,103.1 117.2,99.8 128.9,91.2 131.3,94.5 127.4,97.3 135.8,108.7 131.9,111.6 			
				"/>
			<path class="st2" d="M150,89.6l0.3,10.4l-4.4,2l0.4-20.6c0-0.2,0.1-0.3,0.3-0.1l15.7,13.2l-4.6,2.1L150,89.6z"/>
			<polygon class="st2" points="187,70.6 191.9,70.3 192.7,84.4 200.4,83.9 200.7,88 188.1,88.8 			"/>
			<polygon class="st2" points="209.8,70 215.1,70.7 217.8,77.8 222.3,71.7 227.3,72.4 219.5,82.5 218.6,89.6 213.7,88.9 214.7,82 
							"/>
			<path class="st2" d="M242,86.2l-3.3,8.5l-4.3-1.7l6.7-17.2c0.1-0.2,0.2-0.2,0.4,0.1l7.2,13l3.3-8.5l4.3,1.7l-6.8,17.2
				c-0.1,0.2-0.2,0.2-0.4-0.1L242,86.2z"/>
			<polygon class="st2" points="270,89.4 274.4,92.6 274,97.9 278.9,95.7 283,98.6 273.9,102.3 273.3,114.1 268.8,110.9 
				269.4,103.8 262.8,106.6 258.6,103.7 269.4,99.4 			"/>
		</g>
	</g>
	<g>
		<path class="st3" d="M181.6,131.6l-6.3,9.3c0,0,4.9,3.3,8.9,7.8c-7-1.3-14.6-2.6-14.6-2.6l-12,6.7l5.6-9.4c0,0-3.8-3.2-8.3-6
			c4.8,0.1,14,0.8,14,0.8L181.6,131.6z"/>
		<path class="st4" d="M150,156.5c0,0-2.8,5.2-3.3,6.1c0,0-31.5,42.8-10.4,104.5c0,0-36.9-32.4-26.4-85.1
			C109.9,182,128.8,154.2,150,156.5"/>
		<path class="st4" d="M113.9,168c0,0,8.5-20.8,18-29.6c0,0,14.6-2.1,24.8,6.1c0,0-2.8,4.9-3.6,6.4C153.1,151,135.7,145.5,113.9,168
			"/>
		<path class="st4" d="M173.6,112.1c0,0-2.2,9,4.9,15.7c0,0-8.3,3.6-10.7,4.7c0,0-19.2-0.8-29.7-0.2
			C138,132.3,152.1,118.5,173.6,112.1"/>
		<path class="st4" d="M184.8,125.1c0,0-7.8-3.8-4.8-14.8c0,0,19.6-5.9,46.6,1.6C226.6,112,210.4,114.1,184.8,125.1"/>
		<path class="st4" d="M249,122.1c-5.8-3.6-9.7-5.2-9.7-5.2c-23,0.5-45,12-45,12c16.1,4.9,16.6-0.3,46.1,7.7
			C243.4,132.2,246.3,127.4,249,122.1"/>
		<path class="st4" d="M256.9,132.1c1.8,7.2,6.7,12.6,10.9,16.2c0.9,0.6,1.8,1.2,2.7,1.8c2.1-0.8,3.9-1.6,5.6-2.3
			c-6.4-9.1-13.7-15.9-20.1-20.8C256.2,128.6,256.5,130.4,256.9,132.1"/>
		<path class="st4" d="M214.9,163.8c6.5-5.1,14.3-12.3,21.9-22.3c-20.3-5.2-35-2.6-47.6-8.2c0,0-4,4.7-4.9,6.5c0,0,7.9,8.3,9.6,10.2
			C194,150.1,202.7,154.6,214.9,163.8"/>
		<path class="st4" d="M170.1,279.4c0,0-3-5.7-2.7-12.4c0,0-9.7-5.1-12.7-15.7c0,0-9.1-4.5-9.1-15.4c0-10.9,8.4-17.4,10.6-19.4
			c2.2-2,5.5-5.3,6.2-7.2c0.1-0.3,0-0.8-0.1-1.5c-0.4-1.1-0.7-2.2-0.8-3.2c-0.5-2.5-0.8-5.7,0.8-9.2c1.6-3.6,4.4-8.2,13.7-13.7
			c-7.4-18.1-17.9-22.8-17.9-22.8c-1.1,0.7-3.7,3.1-3.7,3.1c-4,6.3-18.3,27.4-19.3,61c-1,33.6,10.6,51.9,10.6,51.9
			c9.5,6.5,18.5,10.7,26.5,13.5C171.1,285.7,170.4,282.8,170.1,279.4"/>
		<path class="st4" d="M181.1,178.9c6.6-3.3,15.5-6.9,27.8-10.7c0.2-0.2,0.5-0.3,0.7-0.5c-11.3-8.4-19.5-13-19.5-13
			c-6.2-2-18.6-3.6-18.6-3.6c-1.1,0.5-8,4.2-8,4.2C172,161.8,177.4,169.8,181.1,178.9"/>
	</g>
	<path class="st3" d="M175.7,231.3c0,0-8-0.1-12.5,1c0,0,0.7,1.6,1.1,1.9c0,0,6.3-0.7,10.2-0.8L175.7,231.3z"/>
	<g>
		<path class="st3" d="M166.5,200.8c0,0,2.9,6.3,8.7,5.7C175.2,206.5,165,214.3,166.5,200.8"/>
		<path class="st3" d="M200.8,205.6c0,0,7.2-2,10.5-4.8c3.3-2.8,9.8-6.1,9.8-6.1S215.3,212.4,200.8,205.6"/>
		<path class="st2" d="M181.8,249c0,0,3.1,0.5,6.4,0.1c0,0,0.2,5.1,1.7,8.5C190,257.6,184,254.9,181.8,249"/>
		<path class="st2" d="M160.3,251c0,0,1.7,5.5,7.6,7.9c0,0-2-5.5-1.8-8.8C166.2,250.1,162.6,251.4,160.3,251"/>
		<path class="st2" d="M175.8,276.2c0,0,3.2-1.1,4.6-1.3c0,0-3.5-2.9-5.1-6.3C175.3,268.6,173.8,272.6,175.8,276.2"/>
		<path class="st2" d="M188.1,267c0,0-0.8,3.3,0.7,7c0,0,2.7-0.6,5.2-0.2C194,273.8,190.8,271.4,188.1,267"/>
		<path class="st2" d="M326.8,135.9c0,0-5.8,6.2-8.2,19.1c-2.3,12.9,2.7,34.3-8.8,50.7c0,0-5.1-5.4-5.2-10.7
			c-0.1-5.3,0-12.5-1.7-19.1c0,0-2.9,9.5-8.7,12.7c0,0-6.2-9.2,0-22C300.5,153.6,320.4,139,326.8,135.9"/>
		<path class="st0" d="M249.9,213.8c-35.8,0-62.3,14.4-62.3,14.4S208,209,248.3,209c49.5,0,69.7,25.5,69.7,25.5
			c-5.8-20.5-17.4-27.3-26.1-38.6c-9.5-12.3-9.5-25.3,0.6-37.9c10.1-12.6,27.7-22.2,27.7-22.2s-32.1,12.9-44.2,17.8
			c-12.1,4.9-17.4,6.4-29.1,9.2c-11.7,2.9-30,6.6-45,15.1c-15,8.6-15.8,16.4-15.8,16.4c-3.8-5.9-2.2-11.2-2.2-11.2
			c-3.7,2.1-15.3,6.9-14.9,12.7c0.5,8.1,12.5,7.4,12.5,7.4c-3.6,7.2-9.2,8.7-9.2,8.7c-2.7,4.4-5.2,4.4-5.2,4.4
			c-0.3-0.7-0.9-2.4-0.9-2.4c-13.7,10.1-14.8,16.9-14.8,16.9c2.3,1.2,4.1,2.9,4.1,2.9c-1,0.1-4.4,0.3-4.4,0.3c-0.3,1.4,0,4,0,4
			c4.6,1.4,5.6,2.9,5.6,2.9c-1-0.1-5,0.1-5,0.1s1,4.2,5.6,4.4c4.7,0.2,7.9-4.4,7.9-4.4c-3.9-4.5-6.1-10.8-6.1-10.8l5.4-8.2
			c-0.6,2.1-2,7.5-2,7.5c4.5-1.3,12.6-1.6,12.6-1.6c6.8-4.5,15.1-9.2,15.1-9.2c-14.2,12.4-15.8,22.2-15.8,22.2
			c10.7,8,22.6-0.9,26.7-2.9c0,0,13.8-5.5,20.3-7.6c6.4-2.1,24.7-6.2,24.7-6.2c-32.3-0.8-57.1,12.5-57.1,12.5s14-16.8,56.5-16.8
			c46.6,0,73.4,28.6,73.4,28.6C311,228.6,282.6,213.8,249.9,213.8 M206.2,198.9c7.1-5.7,20.8-12.3,30.4-14.4c0,0-8.6,7.8-11.6,14.5
			c-0.3,0.7-0.8,1.5-1.4,2.4c2.9-0.5,6.4-1.4,6.4-1.4c-5.1,6.1-19.4,10.9-19.4,10.9c0.3-0.1,0.6-0.3,0.9-0.4
			c-3.1,1.1-6.6,1.4-10,0.2c-1.8,1.4-2.5,3.7-2.5,3.7c-1.9-2-3.6-6.5-4.1-7.8c-1.3-1.3-2.6-2.8-3.9-4.7
			C191,202,199.1,204.6,206.2,198.9"/>
		<path class="st0" d="M224.3,163.2c0,0,14.2-11.8,27.2-34.7c0,0,1.9,15.6,13.2,23.6c0,0-8.6,3.5-14.8,4.7
			C243.6,157.9,224.3,163.2,224.3,163.2"/>
		<path class="st2" d="M176.8,281.5c0,0,11.6-3.5,22.1-3.2c0,0,23.7-14.8,11.7-37.3c0,0,12.9-10,47.5-7.3c0,0-24.4-10.8-58.1,4.9
			c0,0,24.8-15.9,49-14.4c29.2,1.8,40.1,9,46.5,17.3c7.3,9.3,7.7,23.3,4.4,34c0,0-1.9-24.8-30.5-26.3c0,0,37.4,24.2-3.2,64.4
			c0,0-1.5-34.5-36.1-37c0,0,3.1-3.2,6-5.1c0,0-14.5-1.2-28.1,11.1c-13.2,12.1-6.8,17.1-6.8,17.1S180.8,304,176.8,281.5"/>
	</g>
</g>
</svg>
