<?xml version="1.0" encoding="utf-8"?>
<!-- Generator: Adobe Illustrator 26.1.0, SVG Export Plug-In . SVG Version: 6.00 Build 0)  -->
<svg version="1.1" id="Layer_2_1_" xmlns="http://www.w3.org/2000/svg" xmlns:xlink="http://www.w3.org/1999/xlink" x="0px" y="0px"
	 viewBox="0 0 400 400" style="enable-background:new 0 0 400 400;" xml:space="preserve">
<style type="text/css">
	.st0{fill:#FFFFFF;}
	.st1{fill:#061922;}
	.st2{fill:#4D90CD;}
	.st3{fill:#FFD520;}
</style>
<g>
	<g>
		<path class="st0" d="M344.4,186.9l-11.5,0l4.2-7.9l-10.5,0l-0.1,0c0.3-3.6,0.5-7.2,0.5-10.9c0-33-12.7-64.3-35.7-88l-0.7-0.7
			l2.5-2.5l-5.5-5.5c-23.3-23.3-54.2-36.1-87.1-36.1c-32.9,0-63.9,12.8-87.1,36.1l-5.5,5.5l2.5,2.5l-0.7,0.7
			c-23,23.7-35.7,55-35.7,88c0,3.8,0.2,7.5,0.5,11.2l-0.1,0l-10.5,0l2.3,4.4l0,0l1.9,3.6l-0.2,0.1l-11.3,0l2.5,4.7l0,0l43,80.5h11.5
			l4.5,8.5h7.7l45.2,84.5l6.6-14.1c1.7-3.6,3.4-7.2,5-10.8c0.7-1.6,1.7-3.7,2.8-6.1l15.4,31.1l6.9-14.6c1.6-3.4,3.2-6.8,4.8-10.3
			c0.8-1.6,1.8-3.8,2.9-6.2l14.4,31.1l45.2-84.6h7.6l4.5-8.5h11.5l34-63.9h0L344.4,186.9z"/>
		<path class="st1" d="M319.1,182.1c0.4-4,0.6-8,0.6-12.1c0-32.3-12.8-61.5-33.6-83l-1.1,1.1c16.8,19.5,26.9,44.8,26.9,72.5
			c0,7.3-0.7,14.5-2.1,21.4h-8.1c1.5-7,2.3-14.3,2.3-21.8c0-28.6-11.6-54.4-30.3-73.2l8.8-8.8c-21-21-50-34-82-34c-32,0-61,13-82,34
			l8.8,8.8C108.6,105.9,97,131.7,97,160.3c0,7.5,0.8,14.7,2.3,21.8h-8.1c-1.4-6.9-2.1-14.1-2.1-21.4c0-27.7,10.1-53,26.9-72.5
			l-1.1-1.1c-20.8,21.5-33.6,50.7-33.6,83c0,4.1,0.2,8.1,0.6,12.1h-8.4l49,93.3h7.7c0,0.1,0.1,0.2,0.1,0.2c0,0,0,0.1,0.1,0.1
			c0.1,0.1,0.1,0.2,0.1,0.3l40,74.7c1.7-3.6,3.4-7.2,5-10.8c2.4-5.1,4.7-10.2,7.1-15.4l-5.3-10.8c-2.3,5.1-4.6,10.3-6.9,15.4
			c-3.5-7.1-7-14.2-10.8-21.3c4.6-10.6,9.2-21.3,14-32.3h21.3c-3.4,7.2-6.7,14.3-9.9,21.3c-2.7-5.3-5.4-10.6-8.2-16
			c-1.7,3.7-3.3,7.4-4.9,11.1l20,40.3l8.9,18c1.6-3.4,3.2-6.9,4.8-10.3c2.4-5.2,4.9-10.4,7.4-15.6l-5-10.9c-2.5,5.2-5,10.4-7.4,15.6
			c-3.3-7.1-6.7-14.2-10.2-21.3c3.3-7.2,6.7-14.3,10.2-21.6c1.7-3.5,3.4-7,5.2-10.6h21.4c-3.8,7.1-7.4,14.2-11,21.3
			c-2.4-5.3-4.9-10.7-7.4-16c-1.8,3.7-3.6,7.4-5.4,11.1l21.2,45.8l6,13l40.1-75c0,0,0.1-0.1,0.2-0.4h7.6l50-93.3H319.1z M153.7,297
			c-3.9-7.1-8-14.3-12.3-21.4h21.3C159.6,282.8,156.6,290,153.7,297z M247.3,297c-2.2-5.3-4.5-10.6-6.7-16c-2,3.7-4,7.3-6,11
			c2.3,5.3,4.6,10.6,6.9,15.9c-3.7,7.1-7.3,14.2-10.8,21.3c-3.2-7.1-6.4-14.2-9.6-21.3c3.6-7.1,7.2-14.3,11.1-21.5
			c1.9-3.6,3.8-7.1,5.8-10.7h21.6C255.3,282.8,251.2,289.9,247.3,297z"/>
		<polygon class="st2" points="200.5,190.4 65.5,190.4 106.5,267.1 200.5,267.1 294.5,267.1 335.5,190.4 		"/>
		<path class="st3" d="M168.4,227.2c-1.7-1.5-3.7-2.7-6-3.6c-2.3-0.9-4.9-1.4-7.7-1.4h-22.4l-0.2,0c-2-0.1-3.6-1.8-3.6-3.8
			c0-2,1.6-3.7,3.7-3.8l40.1,0v-12.8h-37.8c-2.8,0-5.4,0.4-7.8,1.3c-2.4,0.8-4.5,2-6.3,3.4c-1.8,1.5-3.3,3.3-4.3,5.3
			c-1.1,2.1-1.6,4.4-1.6,6.8c0,2.1,0.4,4.2,1.3,6.2c0.9,2,2.1,3.7,3.8,5.2c1.6,1.5,3.6,2.7,5.8,3.6c2.2,0.9,4.8,1.3,7.6,1.3h22.9
			c2.1,0,3.9,1.7,3.9,3.9c0,2.1-1.7,3.9-3.9,3.9h-50.6l6.7,12.8h45.2c2.5,0,4.9-0.5,7-1.6c2-1,3.7-2.4,5.2-3.9
			c1.4-1.6,2.6-3.4,3.3-5.3c0.8-2,1.2-3.9,1.2-5.7c0-2.2-0.5-4.4-1.4-6.4C171.5,230.5,170.1,228.7,168.4,227.2"/>
		<polygon class="st3" points="213.9,201.9 192.5,222.6 192.5,201.9 177.4,201.9 177.4,255.5 192.5,255.5 192.5,234.8 213.9,255.5 
			232.4,255.5 205.5,228.5 232.4,201.9 		"/>
		<path class="st3" d="M282.9,201.9v20.3h-31c-1.6-0.3-2.7-1.7-2.7-3.3v-17h-12.9v16.9c0,1.5,0.2,3,0.7,4.5
			c2.1,7,8.6,11.9,15.9,11.9h30v4.3c0,1.9-1.5,3.4-3.4,3.4h-52.7l12.9,12.8h39.3c2.5,0,4.9-0.6,7-1.7c2-1.1,3.8-2.4,5.2-4.1
			c1.4-1.6,2.5-3.4,3.3-5.3c0.8-2,1.2-3.8,1.2-5.6v-37H282.9z"/>
		<path class="st2" d="M200.5,69.7c-50,0-90.6,40.6-90.6,90.6c0,7.5,0.9,14.8,2.6,21.8h56.6l0-19.6l9.3-1.7v21.3h110.1
			c1.7-7,2.6-14.3,2.6-21.8C291.1,110.2,250.5,69.7,200.5,69.7z M188.7,150.8l-9.3,1.6v-35.9l9.3-3.3V150.8z"/>
		<path class="st0" d="M212.3,105.8l-4.6-1.5V74.7c-1.3-0.1-2.6-0.2-3.9-0.2v28.7l-3.4-1.1l0,0l0,0l0,0l0,0v0v54.1v13.2v21h22.1
			v-37.9l-10.2-1.8V105.8z"/>
		<g>
			<polygon class="st3" points="200.5,102 200.5,102 200.5,102 			"/>
			<path class="st3" d="M272.7,99.3c-1.9-2.2-3.8-4.3-5.8-6.3c-17.1-16.9-40.5-27.3-66.4-27.3c-25.9,0-49.3,10.4-66.4,27.3
				c-2,2-4,4.1-5.8,6.3c-13.9,16.5-22.3,37.7-22.3,61c0,2.4,0.1,4.8,0.3,7.1c0.2,3.3,0.7,6.5,1.2,9.7c0.3,1.7,0.6,3.3,1,5h8.9
				c-0.9-3.4-1.6-6.9-2-10.4c7.7-5.1,15.9-9.4,24.5-13c4.5-1.9,9-3.5,13.6-5c0.2,2.2,0.3,4.5,0.3,6.7c0,7.4-1,14.7-2.8,21.8h8.8
				c1.7-7,2.5-14.3,2.5-21.8c0-3.1-0.2-6.1-0.4-9.1c5.8-1.5,11.7-2.6,17.6-3.4v-8.7c-6.4,0.8-12.7,2-18.8,3.5
				c-3.1-16.3-10.3-31.1-20.6-43.3c14.5-14.4,33.2-23,53.4-24.7v29.7l-4.6,1.5v7.4v25v8.6v4l-10.2,1.8v37.9h22.1v-21v-13.2V102
				l-3.4,1.1V74.4c1.1,0,2.2-0.1,3.4-0.1c22.9,0,44.4,8.9,60.6,25c-10.3,12.2-17.5,27-20.6,43.3c-9.1-2.3-18.5-3.8-28.1-4.5v8.6
				c9.1,0.7,18.1,2.1,26.9,4.4c-0.3,3-0.4,6-0.4,9.1c0,7.5,0.9,14.8,2.5,21.8h8.8c-1.8-7-2.8-14.3-2.8-21.8c0-2.3,0.1-4.5,0.3-6.7
				c4.6,1.5,9.1,3.1,13.6,5c8.6,3.6,16.8,8,24.5,13c-0.5,3.5-1.2,7-2,10.4h8.9c0.4-1.6,0.7-3.3,1-5c0.6-3.2,1-6.4,1.2-9.7
				c0.2-2.3,0.3-4.7,0.3-7.1C295,137.1,286.6,115.8,272.7,99.3z M152.3,144.9c-13.4,4.1-26,9.8-37.7,17c0-0.5,0-1.1,0-1.6
				c0-20.1,6.9-39.2,19.5-54.6C143.5,117.1,149.7,130.5,152.3,144.9z M286.4,161.9c-11.7-7.2-24.3-12.9-37.7-17
				c2.6-14.4,8.8-27.8,18.2-39.2c12.6,15.3,19.5,34.4,19.5,54.6C286.4,160.8,286.4,161.4,286.4,161.9z"/>
		</g>
	</g>
	<g>
		<path class="st0" d="M135.4,75.4c-1.7-2.5-0.7-4,1.7-5.6l3-2.1c3.7-2.5,4.7-2,6.3,0.4l-2.6,1.7l-0.2-0.2c-0.4-0.6-1-0.5-1.7,0
			l-2.8,1.9c-1.4,0.9-1.2,1.7-0.5,2.8l0.6,0.9c0.8,1.2,1.4,1.5,2.6,0.7l2.8-1.9c1.2-0.8,1.4-1.1,0.7-2.2l2.6-1.7l0.5,0.8
			c1,1.4,1.2,2.9-1.4,4.6l-4.2,2.8c-2.3,1.6-4.1,1.9-5.8-0.5L135.4,75.4z"/>
		<polygon class="st0" points="153.5,60.2 156.4,59 157.8,62.4 163.9,60 162.5,56.6 165.4,55.4 169.2,64.9 166.3,66 164.9,62.5 
			158.8,64.9 160.2,68.5 157.3,69.7 		"/>
		
			<rect x="176.3" y="52.4" transform="matrix(0.9767 -0.2146 0.2146 0.9767 -8.1943 39.5061)" class="st0" width="3.1" height="10.2"/>
		<path class="st0" d="M188.2,54c-0.2-3,1.5-3.8,4.3-3.9l3.7-0.2c4.4-0.2,5.1,0.7,5.2,3.6l-3.1,0.2l0-0.3c0-0.7-0.6-0.9-1.5-0.9
			l-3.4,0.2c-1.6,0.1-1.9,0.9-1.8,2.1l0.1,1.1c0.1,1.5,0.4,2,1.9,1.9l3.3-0.2c1.4-0.1,1.8-0.2,1.8-1.5l3.1-0.2l0.1,1
			c0.1,1.7-0.5,3.1-3.6,3.3l-5,0.3c-2.8,0.1-4.5-0.5-4.7-3.4L188.2,54z"/>
		<path class="st0" d="M216.1,51l4,0.6l3.9,10.9l-3.4-0.5l-0.7-1.9l-6.2-1l-1.2,1.6l-3.4-0.6L216.1,51z M215.1,57.1l3.9,0.6
			l-1.4-4.1L215.1,57.1z"/>
		<path class="st0" d="M233.3,58.4c1.1-2.8,2.9-2.8,5.5-1.8l4.4,1.7c3.3,1.3,3.3,2.7,2.6,4.5l-0.1,0.3l-2.9-1.1
			c0.4-0.9-0.1-1.3-1.1-1.6l-3.2-1.2c-1.5-0.6-2-0.4-2.6,1.3l-0.5,1.2c-0.6,1.6-0.4,2.1,1.1,2.7l3.1,1.2c0.8,0.3,1.6,0.5,1.9-0.4
			l0.1-0.3l-3.6-1.4l0.8-2l6.5,2.6l-1.1,2.7c-1.1,2.7-2.5,2.3-5.8,1l-3.5-1.4c-2.6-1-3.9-2.3-2.8-5.1L233.3,58.4z"/>
		<path class="st0" d="M254,67.6c1.7-2.5,3.4-2.1,5.8-0.6l4.2,2.8c2.3,1.6,3.3,3.1,1.7,5.6l-1.7,2.5c-1.7,2.5-3.4,2.1-5.8,0.6
			l-4.2-2.8c-2.3-1.6-3.3-3.1-1.7-5.6L254,67.6z M255.6,71.1c-0.8,1.2-0.9,1.9,0.4,2.7l3.3,2.2c1.2,0.8,1.8,0.5,2.6-0.7l0.6-0.9
			c0.7-1.1,0.9-1.9-0.5-2.8l-3-2c-1.4-0.9-2.1-0.4-2.8,0.6L255.6,71.1z"/>
	</g>
</g>
</svg>
