<?xml version="1.0" encoding="utf-8"?>
<!-- Generator: Adobe Illustrator 26.1.0, SVG Export Plug-In . SVG Version: 6.00 Build 0)  -->
<svg version="1.1" id="Layer_2_1_" xmlns="http://www.w3.org/2000/svg" xmlns:xlink="http://www.w3.org/1999/xlink" x="0px" y="0px"
	 viewBox="0 0 400 400" style="enable-background:new 0 0 400 400;" xml:space="preserve">
<style type="text/css">
	.st0{fill:#00A8E1;}
	.st1{fill:#002B5C;}
	.st2{fill:#C4D600;}
	.st3{fill:#FFFFFF;}
</style>
<g>
	<path class="st0" d="M379.6,121.7l4.9-8.6l-9,4c-3,1.3-6.5,2.4-10,3.4c18.1-13.2,29.5-43.7,29.5-43.7l-7.2,4.5l-2.2,1.3
		c-0.3,0.2-34.6,20.9-80.4,37.3c-11.3,4-21.4,6.9-30.2,9.4c-27.8,8-44.6,12.8-43.4,38.7c0.4,9.7-1.3,16.9-5.1,20.8
		c-1.2,1.3-2.5,2.1-3.7,2.6c-0.5-0.6-0.6-1.4-0.7-2.7l-0.1-0.6c0-0.4,0-0.8,0-1.2c0.1-3.2,2.8-10.1,3.7-12.5
		c0.2-0.5,0.5-1.1,0.8-1.8c4.8-12.3,2.8-20.5,2.7-20.8l-0.1-0.4l-0.2-0.3c-0.3-0.5-0.6-1.1-1.1-1.6c-1.1-1.5-2.3-2.7-3.3-3.7
		c1.3-1.8,2.3-3.7,3-5.6h-0.1c3.3-8.8,0.6-17.1,0.4-17.5l-0.8-2.5l-2.6,0.3c-8.5,1-14.5,3.9-18.6,6.8c-1.1-1.3-2.1-1.9-2.2-2
		l-4.3-3.1l-0.7,5.2c-2.4-0.8-5-1-5-1c-4.1-2.7-9.7-5.1-17.3-5.9l-2.6-0.3l-0.8,2.5c-0.2,0.6-4.1,12.7,3.5,23.1
		c-1.1,0.9-2.2,2.2-3.3,3.7c-0.4,0.6-0.8,1.1-1.1,1.6l-0.2,0.3l-0.1,0.4c-0.1,0.3-2.1,8.5,2.7,20.8c0,0,0.1,0.4,0.2,0.5
		c1.1,2.9,4.1,10.5,4.3,13.9c0,0.7,0,1.3,0,1.9c-0.1,1.1-0.2,1.9-0.7,2.5c-1.3-0.6-2.6-1.4-3.8-2.6c-3.8-4-5.6-11.2-5.1-20.8
		c1.2-25.9-15.6-30.7-43.4-38.7c-8.9-2.5-18.9-5.4-30.2-9.4C50,103.6,15.7,82.9,15.4,82.7l-2.2-1.3L6,76.9c0,0,11.4,30.4,29.5,43.7
		c-3.5-0.9-7.1-2-10-3.4l-9-4l4.9,8.6c0.4,0.7,8,13.9,20.9,22.9c-1.2,0-2.4,0-3.6,0c-4.4,0-7.9-0.2-10.7-0.6l-9.3-1.4l6.5,6.8
		c0.6,0.6,12.1,12.6,24.5,18.7c-3.5,1-7.6,2-11.5,2.5l-6.7,0.8l4.8,4.7c0.5,0.5,10.4,10,27.9,17.6c-8.2,2.1-13.5,3.3-13.5,3.3
		c3.9,4.7,8.9,11.2,15.8,19.2h-0.1c0.6,0.7,1.2,1.4,1.9,2.1c2.2,2.5,4.5,5.1,7,7.8l0,17.2c0,6.2,3,12,8.4,15.8
		c4.2,3,9.3,4.6,14.9,4.7h0l10.4,0v19.1h29.5c9.5,7.2,20,14.6,31.6,22.3c9,6,30.2,19,30.2,19s23-14,32.6-20.6
		c10.5-7.1,20.2-14,29.1-20.7H292v-19.1l10,0c5.4-0.1,10.3-1.7,14.3-4.6c5.3-3.8,8.4-9.6,8.4-15.8l0-16.2
		c12.7-13.6,20.7-24.1,25.4-30.2c0,0-1.7-0.4-4.7-1.1v0c-0.1,0-3.6-0.8-8.5-2.1c17.4-7.5,27.4-17.1,27.9-17.6l4.8-4.7l-6.7-0.8
		c-4-0.5-8.1-1.5-11.5-2.5c12.4-6.1,23.9-18.1,24.5-18.7l6.5-6.8L373,144c-2.7,0.4-6.3,0.6-10.7,0.6c-1.2,0-2.4,0-3.6,0
		C371.6,135.6,379.2,122.4,379.6,121.7z"/>
	<path class="st1" d="M376.8,120.1c-9.8,4.4-25.7,6.7-25.7,6.7c21.7-12,33.2-34.5,36.3-41.3c-0.1-0.1-0.1-0.1-0.1-0.1
		s-34.3,20.9-81,37.5c-46.7,16.6-72.9,14-71.5,44.9c0.9,19.6-6.8,25.5-12.6,27.3c-3.2-1.7-3.2-4.2-3.4-6.6l0,0c0-0.5,0-1,0-1.6
		c0.1-3.2,2.1-8.7,4-13.7c0.2-0.5,0.5-1.1,0.7-1.8c4.5-11.5,2.6-18.8,2.6-18.8H226c-0.2-0.4-0.5-0.8-0.8-1.2c-2.3-3.3-5.3-5-5.4-5.1
		l0,0c9.4-9.7,5.1-22.6,5.1-22.6c-9.6,1.1-15.7,4.8-19.5,8.2c-1.6-2.7-3.5-4-3.5-4s-0.4,2.9-1.8,4.2c0,0-1.3-1.4-3.1-1.8
		c0,0,0,1.3-0.2,2.7c-3.6-3.6-10.1-8-20.6-9.2c0,0-4.4,13,5.1,22.6c0,0-3,1.8-5.4,5.1c-0.3,0.4-0.6,0.8-0.8,1.2
		c0,0-1.9,7.4,2.6,18.8c0,0,0,0.1,0,0.1c0,0.1,0.1,0.3,0.1,0.4c2.1,5.3,4.4,11.5,4.5,14.9c0,0.9,0,1.6,0,2.4
		c-0.2,2.1-0.5,4.3-3.4,5.8c-5.8-1.7-13.5-7.6-12.6-27.3c1.4-30.9-24.8-28.3-71.5-44.9c-46.7-16.6-81-37.5-81-37.5s0,0-0.1,0.1
		c3.1,6.8,14.6,29.2,36.3,41.3c0,0-15.9-2.3-25.7-6.7c0,0,11.4,20,29.5,27.1c0,0-16.5,1.4-26.2,0c0,0,17.6,18.5,31.9,20.9
		c0,0-10.8,4.5-21,5.7c0,0,13.1,12.8,35.7,20.3c-8.8,2.8-17.8,4.9-17.8,4.9s7.3,9.9,22.1,25.3l0,19c0,5.2,2.6,10,7,13.2
		c3.6,2.6,8.1,4,13,4l13.7,0v19.1h28.2c17.3,13.3,37.3,27.2,60,40.8c22.7-13.6,42.7-27.5,60-40.8h28.2v-19.1l13.2,0
		c4.7-0.1,9-1.5,12.5-4c4.5-3.2,7-8.1,7-13.2l0-17.9c15.5-16.1,23.2-26.4,23.2-26.4s-9-2-17.8-4.9c22.6-7.5,35.7-20.3,35.7-20.3
		c-10.1-1.2-21-5.7-21-5.7c14.3-2.4,31.9-20.9,31.9-20.9c-9.7,1.4-26.2,0-26.2,0C365.4,140.1,376.8,120.1,376.8,120.1z"/>
	<g>
		<path class="st0" d="M358.9,108.7c0,0-18.6,15.9-44.2,24.2c-25.7,8.4-29.7,9.9-45.8,14.3c-16.1,4.4-22.1,9.9-22,17.4
			c0.1,7.5,3.2,38.3-27.4,41.2c0,0,10.2-2,16.5-12.8c10-17.3,2.9-28.8,7.1-36.2c5-8.8,11.8-10.9,32.4-17.1
			C296,133.6,320.6,127.5,358.9,108.7"/>
		<path class="st2" d="M342.4,132c0,0-10.1,8.8-32.1,15.1c-22,6.3-43.4,13.6-43.4,13.6s58-4.4,75-7.4c0,0-8.5,6.6-36.3,10.2
			c-27.8,3.7-44.2,4.3-44.2,4.3s54.3,7.3,74.6,7.1c0,0-9.3,4.6-36.3,3.2c-27-1.4-38.9-3.8-38.9-3.8s11.6,10.4,56.7,21.1
			c0,0-15.7,1.4-29.7-2.8c-14-4.1-28.9-11-28.9-11s9.5,13.3,17.6,21.6c0,0-8.7-2-19.6-13.8c0,0-6.8,15.3-16.5,16.2
			c0,0,11.9-12.3,11.9-27.5c0.1-15.2-2.1-19.7,18.2-25.6C290.7,146.7,323.1,137.4,342.4,132z"/>
	</g>
	<g>
		<path class="st0" d="M42.1,108.7c0,0,18.6,15.9,44.2,24.2c25.7,8.4,29.7,9.9,45.8,14.3c16.1,4.4,22.1,9.9,22,17.4
			c-0.1,7.5-3.2,38.3,27.4,41.2c0,0-10.2-2-16.5-12.8c-10-17.3-2.9-28.8-7.1-36.2c-5-8.8-11.8-10.9-32.4-17.1
			C105,133.6,80.4,127.5,42.1,108.7"/>
		<path class="st2" d="M58.6,132c0,0,10.1,8.8,32.1,15.1c22,6.3,43.4,13.6,43.4,13.6s-58-4.4-75-7.4c0,0,8.5,6.6,36.3,10.2
			c27.8,3.7,44.2,4.3,44.2,4.3s-54.3,7.3-74.6,7.1c0,0,9.3,4.6,36.3,3.2c27-1.4,38.9-3.8,38.9-3.8s-11.6,10.4-56.7,21.1
			c0,0,15.7,1.4,29.7-2.8c14-4.1,28.9-11,28.9-11s-9.5,13.3-17.6,21.6c0,0,8.7-2,19.6-13.8c0,0,6.8,15.3,16.5,16.2
			c0,0-11.9-12.3-11.9-27.5c-0.1-15.2,2.1-19.7-18.2-25.6C110.3,146.7,77.9,137.4,58.6,132z"/>
	</g>
	<g>
		<path class="st3" d="M220.6,154.8c-1.4-1.8-4.4-3.5-4.4-3.5c-0.7-1.8-2.7-3.9-4.3-5.5c3.4-2.1,9-6.8,8.4-15.6c0,0-8,2-11.6,6.5
			c-0.4,0.5-0.7,0.9-1.1,1.3c0.5,3.9-0.3,8.8-4.1,14.8c-3,4.6-0.8,8.1-0.8,8.1s-3.5-0.2-5.7-4.8c-2.9-5.9,1.9-10.6-2.1-16.4
			c-0.4-0.5-0.9-1.1-1.4-1.8c-2.2-2.5-4.6-4.3-6.7-5.5c-3.1-1.5-6-2.3-6-2.3c-0.6,8.7,4.9,13.5,8.4,15.6c-1.6,1.6-3.6,3.7-4.3,5.5
			c0,0-3,1.7-4.4,3.5c0,0-0.3,3.2,1.2,6.8c0,0-1.2,5.2,4.2,9c0.1,5,1.2,9,2.3,11.9c0.7-2.2,1.3-4.8,1.2-7.4c0,0,4.7,5.8,2,18.4
			c0,0-0.2,0.5-0.6,1.1c-0.7,1.2-1.7,2.8-2.2,3.6c-0.7,1.2,4,9.7,4,9.7s2.4,1.8,7.5,2v0c0.2,0,0.4,0,0.6,0c0.2,0,0.4,0,0.6,0v0
			c5.1-0.2,7.5-2,7.5-2s4.6-8.5,4-9.7c-0.5-0.8-1.5-2.4-2.2-3.6c-0.4-0.6-0.6-1.1-0.6-1.1c-2.7-12.6,2-18.4,2-18.4
			c-0.1,2.6,0.5,5.3,1.2,7.4c1.1-2.9,2.2-6.9,2.3-11.9c5.4-3.9,4.2-9,4.2-9C220.8,158,220.6,154.8,220.6,154.8"/>
		<path class="st2" d="M220.6,154.8c0,0-2.8,2.7-4.1,3.6c-1.3,0.9-5.4,7.6-5.4,7.6s-3,0.8-3,3c0,2.2,0.7,1.2-0.2,5.1
			c-0.8,3.4-2.9,11.4,1,18.2c1.1,2.4,2.4,3.9,2.4,3.9c-2.3-10.1-0.6-16.3,0.5-18.8c0.2,1.8,0.6,3.6,1.1,5.1
			c3.1-7.8,2.2-11.8,2.3-11.9C221.9,166.4,220.6,154.8,220.6,154.8z"/>
		<path class="st2" d="M192,192.5c4.1-6.8,1.9-14.9,1.2-18.4c-0.9-4-0.3-3-0.2-5.1c0-2.2-3-3-3-3s-4-6.7-5.4-7.6
			c-1.3-0.9-4.1-3.6-4.1-3.6s-1.4,11.7,5.4,15.8c0.1,0.1-0.8,4.1,2.3,11.9c0.5-1.5,0.9-3.3,1.1-5.1c1,2.6,2.7,8.8,0.5,18.7
			C189.7,196.1,190.9,194.8,192,192.5z"/>
		<path class="st2" d="M208.5,202.5l-2.3-2.2c0,0-1.1,3.5-5.8,3.5c-4.7,0-5.8-3.5-5.8-3.5l-2.3,2.2c-1.6-0.6-3.2-3-3.9-4.4
			c0,0,0,0,0,0c-0.7,1.2,4,9.7,4,9.7s2.4,1.8,7.5,2v0c0.2,0,0.4,0,0.6,0c0.2,0,0.4,0,0.6,0v0c5.1-0.2,7.5-2,7.5-2s4.6-8.5,4-9.7
			c0,0,0,0,0,0C211.7,199.6,210.2,202,208.5,202.5"/>
		<path class="st1" d="M198.2,203.6c0,0-1.6-4.7-3.8-6.2c0,0-4.4,2.5-2.9,4.7c1.2,1.7,2.5,1.6,2.5,1.6s-1-1.3,0.7-2.4
			C194.7,201.3,196.1,202.7,198.2,203.6"/>
		<path class="st1" d="M202.8,203.6c0,0,1.6-4.7,3.8-6.2c0,0,4.4,2.5,2.9,4.7c-1.2,1.7-2.5,1.6-2.5,1.6s1-1.3-0.7-2.4
			C206.3,201.3,204.9,202.7,202.8,203.6"/>
		<path class="st2" d="M192.1,145.1c-0.9-6.5-7.7-12.3-11.3-14.9c-0.6,8.7,4.9,13.5,8.4,15.5c-1.6,1.6-3.6,3.7-4.3,5.5
			C188,146.8,192.1,145.1,192.1,145.1"/>
		<path class="st2" d="M208.9,145.1c0.9-6.5,7.7-12.3,11.3-14.9c0.6,8.7-4.9,13.5-8.4,15.5c1.6,1.6,3.6,3.7,4.3,5.5
			C212.9,146.8,208.9,145.1,208.9,145.1"/>
		<path class="st2" d="M206.1,211.8c-1.5,0.5-3.2,0.8-5.1,0.9l-0.2,0c0,0-0.1,0-0.1,0l-0.2,0l-0.2,0l-0.3,0
			c-1.9-0.1-3.6-0.4-5.1-0.9l-0.8-0.3l0.6,2.1l0.1,0.1c0.1,0.1,1.5,1.3,4.6,1.5c0.3,0,0.7,0.1,1.1,0.1c0.4,0,0.8,0,1.1-0.1
			c3.1-0.2,4.6-1.5,4.6-1.5l0.1-0.1l0.6-2.1L206.1,211.8z"/>
		<path class="st1" d="M183.1,157.3c0,0,0,1.3,1.3,3.9c0,0-1.3,1.3,0.2,3.4c0,0,1.1-1.6,1.7-2.1c0,0-0.5,1.7,0.3,3.2
			c0.7,1.5,1.3,1.9,3.2,2.9c1.9,1,2.7,2.4,2.7,2.4s1.9-3.2-1.4-7.1C189,161.1,186.9,160.6,183.1,157.3"/>
		<path class="st1" d="M217.9,157.3c0,0,0,1.3-1.3,3.9c0,0,1.3,1.3-0.2,3.4c0,0-1.1-1.6-1.7-2.1c0,0,0.5,1.7-0.3,3.2
			c-0.7,1.5-1.3,1.9-3.2,2.9c-1.9,1-2.7,2.4-2.7,2.4s-1.9-3.2,1.4-7.1C212,161.1,214.1,160.6,217.9,157.3"/>
	</g>
	<g>
		<path class="st2" d="M131.3,260.5h-9.4l0,11.6h9.5c0.7,0,1.3-0.2,1.8-0.6c0.5-0.4,0.7-0.9,0.7-1.5v-7.3c0-0.6-0.2-1.1-0.7-1.5
			C132.6,260.7,132,260.5,131.3,260.5 M130.7,269.4h-5.6v-6.2h5.6V269.4z"/>
		<path class="st2" d="M163.2,261.2c-0.5-0.4-1.1-0.6-1.8-0.6h-7c-0.7,0-1.3,0.2-1.8,0.6c-0.5,0.4-0.7,0.9-0.7,1.5v9.5h3.2v-3.7h5.6
			v3.7h3.2l0-9.5C163.9,262.1,163.7,261.6,163.2,261.2 M160.8,263.3v2.5h-5.6l0-2.5H160.8z"/>
		<polygon class="st2" points="185.2,260.5 182.1,260.5 182.1,272.1 191.4,272.1 191.4,269.4 185.2,269.4 		"/>
		<polygon class="st2" points="212.7,260.5 209.6,260.5 209.6,272.1 218.9,272.1 218.9,269.4 212.7,269.4 		"/>
		<path class="st2" d="M246.5,260.5h-7c-0.7,0-1.3,0.2-1.8,0.6c-0.5,0.4-0.7,0.9-0.7,1.5l0,9.5h3.2v-3.6h5.6v3.6h3.2v-9.5
			c0-0.6-0.2-1.1-0.7-1.5C247.8,260.7,247.2,260.5,246.5,260.5 M245.8,265.8h-5.6v-2.5h5.6V265.8z"/>
		<path class="st2" d="M279.1,265.5l-8.8-0.9v-1.3h8.8l0-2.7h-9.4c-0.7,0-1.3,0.2-1.8,0.6c-0.5,0.4-0.7,0.9-0.7,1.5v4.5l8.8,0.9
			l0,1.4h-8.8v2.7h9.5c0.7,0,1.3-0.2,1.8-0.6c0.5-0.4,0.7-0.9,0.7-1.5V265.5z"/>
	</g>
	<g>
		<g>
			<g>
				<path class="st2" d="M171.8,252H158v-33.1l1,0.1c3.7,0.3,8,0.6,12,0.8l0.8,0V252z"/>
				<path class="st3" d="M159.8,250.2H170v-28.7c-3.4-0.2-7-0.5-10.2-0.7V250.2z"/>
			</g>
		</g>
		<g>
			<path class="st2" d="M237.2,252c-2.9,0-5.6-0.6-7.7-1.9c0,0-0.1,0-0.1-0.1c-2.8-1.7-3.3-3.7-3.3-5.1l0.1-18c0-2,1.2-3.8,3.4-5.3
				c2.1-1.4,4.8-2.2,7.8-2.4c9.6-0.7,19.3-1.7,28.6-2.9l1-0.1l0,9.4l-0.8,0.1c-7.4,0.8-21.5,1.8-25.1,2.1v15.4l11-0.3v-10.6l14.8-1
				v20.6L237.2,252z"/>
			<path class="st3" d="M265,218.3c-9,1.2-18.3,2.1-27.7,2.8c-2.7,0.2-5.1,0.9-6.9,2.1c-1.2,0.8-2.6,2-2.6,3.8l-0.1,18
				c0,1.7,1.4,2.9,2.5,3.6c1.9,1.1,4.3,1.7,6.8,1.7l27.7-0.1v-16.9l-11.2,0.8v10.6l-14.6,0.4v-18.9l0.8-0.1c0.2,0,16.3-1.2,25.1-2
				L265,218.3z"/>
		</g>
		<g>
			<path class="st2" d="M272.7,252l0-9.6l0.9,0c8.5-0.3,16.9-0.7,24.9-1.1l0-3l-25.8-3l0.1-11.9c0-2.2,1.2-4.3,3.3-6.1
				c2.1-1.8,4.8-3,7.7-3.5c9.7-1.7,19.2-3.8,28.4-6.1l1.1-0.3l0,11.4l-0.7,0.1c-8.1,1.6-16.5,3-25,4.3l0,2.3l25.7,2.4l0,14.4
				c0,2.6-1.2,5-3.3,6.8c-2.1,1.8-4.8,2.7-7.9,2.7c-9.5,0.1-19.1,0.1-28.6,0.2L272.7,252z"/>
			<path class="st3" d="M274.5,244.1l0,6c9.2,0,18.5-0.1,27.7-0.2c2.6,0,5-0.8,6.7-2.3c1.7-1.5,2.7-3.4,2.7-5.5l0-12.8l-25.7-2.4
				l0-5.4l0.8-0.1c8.5-1.2,16.9-2.6,24.9-4.2l0-7.6c-8.8,2.2-18.1,4.2-27.4,5.8c-2.6,0.5-5,1.5-6.9,3.1c-1.8,1.5-2.7,3.1-2.7,4.8
				l0,10.3l25.8,3l0,6.3l-0.8,0C291.4,243.4,283,243.8,274.5,244.1z"/>
		</g>
		<g>
			<path class="st2" d="M219.7,252h-14.9l0-23c-3.7,0-7.3,0-11,0l0,23l-14.9,0v-31.8l0.9,0c0.1,0,9.4,0.3,14.1,0.3
				c4.8,0.1,9.7,0.1,14.5,0l0.3,0c2.9,0,5.5,0.6,7.5,1.7c2.8,1.6,3.4,3.6,3.4,5c0,5,0,23.8,0,23.8V252z"/>
			<path class="st3" d="M206.5,250.2h11.3c0-3.8,0-18.6,0-23c0-1.7-1.4-2.8-2.5-3.4c-1.8-1-4-1.5-6.6-1.5l-0.3,0
				c-4.8,0.1-9.7,0.1-14.5,0c-3.8-0.1-10.7-0.2-13.2-0.3v28.2l11.3,0l0-23l0.9,0c4.2,0.1,8.5,0.1,12.7,0l0.9,0L206.5,250.2z"/>
		</g>
		<g>
			<path class="st2" d="M150.4,252h-0.9c-4.7,0-46.3,0-50.1,0c-3.1,0-5.8-1-7.9-2.7c-2.1-1.8-3.3-4.2-3.3-6.8c0-1.6,0-34,0-34v-1.1
				l14.8,3.5v30.4l8.8,0.4v-29l15,2.6v27.1l8.8,0.3v-26.1l1,0.1c0,0,12.6,1.5,12.9,1.5l0.8,0.1V252z"/>
			<path class="st3" d="M90,209.5c0,5.7,0,31.4,0,32.8c0,2.1,0.9,4,2.7,5.5c1.8,1.5,4.1,2.3,6.7,2.3c3.7,0,41.6,0,49.2,0v-30.4
				c-2.3-0.3-8.7-1-11.2-1.3v26L125,244v-27.3l-11.4-2v28.8l-12.4-0.6v-30.7L90,209.5z"/>
		</g>
	</g>
	<g>
		<path class="st0" d="M154.2,280.3c5.3,4,10.8,7.9,16.2,11.5c1.4-2.9,3.3-5.6,5.4-8L154.2,280.3z"/>
		<path class="st0" d="M246.8,280.3l-21.9,3.6c2.2,2.4,4,5.1,5.5,8.1C235.8,288.3,241.4,284.4,246.8,280.3z"/>
	</g>
	<g>
		<path class="st3" d="M215.9,301.2c2-1.4,4.1-2.8,6.2-4.2c-2.6-2.6-6.1-5-10.9-6.5C211.6,294.5,213.5,298,215.9,301.2z"/>
		<path class="st2" d="M202.3,289.1v20.8c3.2-1.9,6.8-4.2,10.6-6.6c-2.8-3.9-5.2-8.3-5.4-13.6C205.9,289.4,204.2,289.2,202.3,289.1z
			"/>
		<path class="st3" d="M193.5,289.7c-0.2,5.3-2.6,9.7-5.4,13.6c3.8,2.5,7.4,4.7,10.6,6.7v-20.8C196.9,289.2,195.1,289.4,193.5,289.7
			z"/>
		<path class="st2" d="M178.9,297c2.1,1.5,4.2,2.9,6.2,4.3c2.4-3.3,4.3-6.7,4.7-10.7C185,292,181.5,294.4,178.9,297z"/>
		<path class="st3" d="M202.3,285.5c1.9,0.1,3.7,0.2,5.3,0.5c0.4-2.7,1.5-4.8,3.2-6.3c0.2-0.2,0.3-0.3,0.5-0.4
			c-2.8-1.2-5.9-1.9-9-2.1V285.5z"/>
		<path class="st3" d="M189.8,286.8c-0.3-1.9-0.9-3.4-2-4.3c-0.7-0.6-1.5-1-2.2-1.1c-4.8,2.9-8.7,7.3-11.1,12.5
			c0.5,0.4,1,0.7,1.5,1.1C179.2,291.6,183.6,288.5,189.8,286.8z"/>
		<path class="st2" d="M215.4,281.4c-0.7,0.2-1.5,0.5-2.2,1.1c-1.1,0.9-1.7,2.4-2,4.3c6.2,1.7,10.6,4.8,13.8,8.1
			c0.5-0.4,1-0.7,1.5-1.1C224.1,288.7,220.2,284.3,215.4,281.4z"/>
		<path class="st2" d="M190.2,279.7c1.7,1.5,2.7,3.6,3.2,6.3c1.7-0.3,3.5-0.5,5.3-0.5v-8.3c-3.2,0.2-6.2,0.9-9.1,2.1
			C189.8,279.5,190,279.6,190.2,279.7z"/>
	</g>
</g>
</svg>
